# xmcd
#
# Track frame offsets:
# 150
# 29252
# 57378
# 90979
# 171687
# 198315
# 222165
# 253666
# 266979
# 291991
#
# Disc length: 4454 seconds
#
#
# Revision: 0
# Processed by: cddbd v1.5.1PL0 Copyright (c) Steve Scherf et al.
# Submitted via: FreeRIP 2.941 
#
DISCID=9c11640a
DTITLE=The Allman Brothers - Wipe The Windows, Check The Oil, Dollar Gas
DYEAR=1900
DGENRE=Blues
TTITLE0=Wasted Words
TTITLE1=Southbound
TTITLE2=Ramblin' Man
TTITLE3=In Memory Of Elizabeth Reed
TTITLE4=Ain't Wastin' Time No More
TTITLE5=Come And Go Blues
TTITLE6=Can't Lose What You Never Had
TTITLE7=Don't Want You No More
TTITLE8=It's Not My Cross To Bear
TTITLE9=Jessica
EXTD=
EXTT0=
EXTT1=
EXTT2=
EXTT3=
EXTT4=
EXTT5=
EXTT6=
EXTT7=
EXTT8=
EXTT9=
PLAYORDER=
